# xmcd
#
# Track frame offsets: 
#        182
#        13465
#        28310
#        42262
#        53757
#        65780
#        79945
#        92997
#        106862
#        120447
#        134695
#        146327
#        160367
#        175280
#        187507
#        201227
#        215632
#        229317
#        242395
#        255100
#        268590
#        282465
#        296187
#
# Disc length: 4124 seconds
#
# Revision: 4
# Processed by: cddbd v1.5.2PL0 Copyright (c) Steve Scherf et al.
# Submitted via: ExactAudioCopy v0.95b2
#
DISCID=5c101a17
DTITLE=Various Artist - Before The Blues Volume 2
DYEAR=1996
DGENRE=Blues
TTITLE0=Dallas String Band - Dallas Rag
TTITLE1=Frank Stokes - How Long
TTITLE2=Peg Leg Howell - Skin Game Blues
TTITLE3=Memphis Jug Band - K. C. Moan
TTITLE4=Charley Jordan - Just A Spoonful
TTITLE5=Hattie Hudson - Doggone My Good Luck Soul
TTITLE6=Eck Robertson - There's A Brown Skin Girl Down The Road Somewh
TTITLE6=ere
TTITLE7=Lulu Jackson - You're Going To Leave The Old Home Jim!
TTITLE8=Tommy McClennan - Deep Blue Sea Blues
TTITLE9=South Street Trio - Cold Morning Shout
TTITLE10=Blind Joe Taggart - Been Listening All The Day
TTITLE11=Charley Patton - Mississippi Bo Weavil Blues
TTITLE12=Golden P. Harris - I'll Lead A Christian Life
TTITLE13=Minnie Wallace - The Old Folks Started It
TTITLE14=Tennessee Chocolate Drops - Vine Street Drag
TTITLE15=Blind Willie Johnson - It's Nobody's Fault But Mine
TTITLE16=Geeshie Wiley - Last Kind Words Blues
TTITLE17=Roland and Scott - Guitar Stomp
TTITLE18=Blind Lemon Jefferson - Jack O'Diamond Blues
TTITLE19=Emry Arthur - Reuben Oh Reuben
TTITLE20=Blue Boys - Memphis Stomp
TTITLE21=Louise Johnson - On The Wall
TTITLE22=Frank Jenkins - Roving Cowboy
EXTD=YEAR: 1996
EXTT0=
EXTT1=
EXTT2=
EXTT3=
EXTT4=
EXTT5=
EXTT6=
EXTT7=
EXTT8=
EXTT9=
EXTT10=
EXTT11=
EXTT12=
EXTT13=
EXTT14=
EXTT15=
EXTT16=
EXTT17=
EXTT18=
EXTT19=
EXTT20=
EXTT21=
EXTT22=
PLAYORDER=
